<?xml version="1.0" encoding="utf-8"?>
<!-- Generator: Adobe Illustrator 23.0.3, SVG Export Plug-In . SVG Version: 6.00 Build 0)  -->
<svg version="1.1" id="Capa_1" xmlns="http://www.w3.org/2000/svg" xmlns:xlink="http://www.w3.org/1999/xlink" x="0px" y="0px"
	 viewBox="0 0 512 512" style="enable-background:new 0 0 512 512;" xml:space="preserve">
<style type="text/css">
	.st0{fill:#E7EDDD;}
	.st1{fill:#FFFFFF;}
	.st2{fill:#4B3F4E;}
	.st3{fill:#CDDAB9;}
	.st4{fill:#95B572;}
</style>
<path class="st0" d="M142.8,347.2l51.9,24.4v-54l-40.7-7c-9.2-1.5-18.3,1.8-24.4,8.9c-6.1,7.1-7.9,16.6-5,25.5l12.5,37.5
	c0.9,2.6,0.4,5.4-1.2,7.6l-1,1.3l-21.1-4.6c-4.4-1-8.9,1.8-9.8,6.3c-1,4.5,1.8,8.9,6.3,9.8l13.5,3l-7.6,10.4
	c-2.7,3.7-1.9,8.8,1.8,11.5c1.5,1.1,3.2,1.6,4.9,1.6c2.5,0,5-1.1,6.6-3.3l19.6-26.1c4.9-6.5,6.3-15,3.7-22.7L142.8,347.2z"/>
<g>
	<path class="st0" d="M298.8,347.2l-51.9,24.4v-54l40.7-7c9.2-1.5,18.3,1.8,24.4,8.9c6.1,7.1,7.9,16.6,5,25.5l-12.5,37.5
		c-0.9,2.6-0.4,5.4,1.2,7.6l1,1.3l21.1-4.6c4.4-1,8.9,1.8,9.8,6.3c1,4.5-1.8,8.9-6.3,9.8l-13.5,3l7.6,10.4c2.7,3.7,1.9,8.8-1.8,11.5
		c-1.5,1.1-3.2,1.6-4.9,1.6c-2.5,0-5-1.1-6.6-3.3L292.4,400c-4.9-6.5-6.3-15-3.7-22.7L298.8,347.2z"/>
	<path class="st0" d="M359.2,137.1c-1.8-4.2-6.7-6.1-10.9-4.3l-16.3,7l2.9-14.3c0.9-4.5-2-8.8-6.5-9.7c-4.5-0.9-8.8,2-9.7,6.5
		l-14.4,72.1c-0.6,3.2-3.1,5.7-5.9,6.4l-70.6,13.8l-70.3-13.7c-3.1-0.7-5.6-3.2-6.2-6.4l-14.4-72.1c-0.9-4.5-5.2-7.4-9.7-6.5
		c-4.5,0.9-7.4,5.2-6.5,9.7l2.9,14.3l-16.3-7c-4.2-1.8-9,0.1-10.9,4.3s0.1,9,4.3,10.9l26.8,11.6l7.6,38.1c1.9,9.5,9.2,17.1,19,19.3
		l72.2,14.1c0.5,0.1,1,0.1,1.6,0.1c0,0,0,0,0,0l0,0l0,0c0,0,0,0,0,0c0.5,0,1,0,1.6-0.1l72.5-14.2c9.5-2.2,16.8-9.8,18.7-19.3
		l7.6-38.1l26.8-11.6C359.1,146.2,361,141.3,359.2,137.1z"/>
</g>
<path class="st1" d="M416.3,184.6L416.3,184.6c-0.3-3.3-2.9-6-6.2-6.6c-18-3.3-41.7,1.6-55.4,25.5c-22.5,39.2,2.3,97.3,4.9,186.6
	c0.4,15.1-2.5,30.3-9.7,43.6c-7.9,14.4-21.5,28.9-44.8,28.9c-0.1,0-0.3,0-0.4,0l0,0c-24.7,0-45.5-19.3-46.3-44
	c-2-57.8,18.9-118.4,18.9-179c0-12.8-4.9-24.5-12.9-33.3c-8.1-8.9-11.9-21.1-11.9-33.2v-4.6c0-13.8,6.4-26.4,16.4-35.9
	c9.8-9.3,16.6-23,16.6-41.6c0-10.9-1.6-21.8-4.8-32.3l-2-6.6C269,23.7,249.8,0,227.8,0c-22.2,0-41.5,24.1-51.2,52.6l-1.8,6
	C171.6,69,170,79.9,170,90.8v0.1c0,18.7,6.8,32.3,16.6,41.6c10,9.5,16.4,22.1,16.4,35.9v4.6c0,12.1-3.7,24.2-11.9,33.2
	c-8,8.8-12.9,20.5-12.9,33.3v161.9c0,52.7,36.6,99.8,88.6,109c67.8,12,125.1-43.7,122.7-105.7c-3.4-88.8-27.2-146.4-22.7-180.6
	c3.4-25.6,24.1-33.2,41.5-31.3C412.9,193.3,416.8,189.2,416.3,184.6z"/>
<path id="SVGCleanerId_0" class="st2" d="M186.5,90.8L186.5,90.8c-9.1,0-16.5-7.4-16.5-16.5v-8.3c0-9.1,7.4-16.5,16.5-16.5l0,0
	c9.1,0,16.5,7.4,16.5,16.5v8.3C203,83.4,195.6,90.8,186.5,90.8z"/>
<path id="SVGCleanerId_1" class="st2" d="M269.1,90.8L269.1,90.8c-9.1,0-16.5-7.4-16.5-16.5v-8.3c0-9.1,7.4-16.5,16.5-16.5l0,0
	c9.1,0,16.5,7.4,16.5,16.5v8.3C285.6,83.4,278.2,90.8,269.1,90.8z"/>
<path class="st3" d="M203,168.4v4.6c0,12.1-3.7,24.2-11.9,33.2c-8,8.8-12.9,20.5-12.9,33.3v161.9c0,52.7,36.6,99.8,88.6,109
	c5.1,0.9,10.2,1.3,15.2,1.5c-34.8-1.9-62.4-30.6-62.4-65.9V231.2c0-34.7,2.3-57.9,4.4-72.3c1.7-11.4,1-23-3-33.8
	C200.1,70.1,225.5,22,241.5,3.1c-4.4-2-9-3.1-13.7-3.1c-22.2,0-41.5,24.1-51.2,52.6l-1.8,6C171.6,69,170,79.9,170,90.8v0.1
	c0,18.7,6.8,32.3,16.6,41.6C196.6,142,203,154.6,203,168.4z"/>
<g>
	<path id="SVGCleanerId_0_1_" class="st4" d="M186.5,90.8L186.5,90.8c-9.1,0-16.5-7.4-16.5-16.5v-8.3c0-9.1,7.4-16.5,16.5-16.5l0,0
		c9.1,0,16.5,7.4,16.5,16.5v8.3C203,83.4,195.6,90.8,186.5,90.8z"/>
</g>
<g>
	<path id="SVGCleanerId_1_1_" class="st4" d="M269.1,90.8L269.1,90.8c-9.1,0-16.5-7.4-16.5-16.5v-8.3c0-9.1,7.4-16.5,16.5-16.5l0,0
		c9.1,0,16.5,7.4,16.5,16.5v8.3C285.6,83.4,278.2,90.8,269.1,90.8z"/>
</g>
</svg>
