<?xml version="1.0" standalone="no"?>
<!DOCTYPE svg PUBLIC "-//W3C//DTD SVG 20010904//EN"
 "http://www.w3.org/TR/2001/REC-SVG-20010904/DTD/svg10.dtd">
<svg version="1.0" xmlns="http://www.w3.org/2000/svg"
 width="682.000000pt" height="682.000000pt" viewBox="0 0 682.000000 682.000000"
 preserveAspectRatio="xMidYMid meet">
<metadata>
Created by potrace 1.14, written by Peter Selinger 2001-2017
</metadata>
<g transform="translate(0.000000,682.000000) scale(0.100000,-0.100000)"
fill="#000000" stroke="none">
<path d="M1050 3422 l0 -3297 2368 0 2367 0 3 3297 2 3297 -2370 0 -2370 0 0
-3297z m646 3078 l132 -1 53 -62 c29 -34 56 -64 59 -67 3 -3 27 -32 55 -65 27
-33 54 -65 60 -71 12 -13 64 -73 239 -279 75 -88 145 -169 154 -180 10 -11 44
-51 77 -90 33 -38 65 -75 70 -81 6 -6 28 -33 50 -59 22 -27 45 -53 50 -59 14
-14 165 -192 240 -281 32 -38 61 -72 64 -75 3 -3 28 -32 56 -65 27 -33 52 -62
55 -65 3 -3 34 -38 69 -79 72 -84 68 -58 36 -266 -9 -55 -17 -111 -20 -125
-10 -67 -16 -109 -20 -150 -3 -25 -7 -56 -10 -70 -4 -25 -9 -58 -20 -160 -3
-30 -8 -71 -11 -91 -2 -20 -7 -56 -9 -79 -3 -24 -9 -78 -14 -119 -6 -42 -13
-101 -16 -131 -8 -73 -14 -127 -21 -175 -11 -80 -13 -91 -19 -150 -3 -33 -8
-71 -10 -85 -2 -14 -7 -45 -10 -70 -4 -24 -8 -47 -10 -50 -2 -3 -6 -26 -10
-50 -3 -25 -8 -52 -10 -60 -2 -8 -7 -28 -10 -45 -2 -16 -7 -39 -9 -50 -2 -11
-16 -78 -30 -149 -15 -70 -38 -172 -52 -225 -25 -94 -140 -446 -165 -506 -7
-16 -13 -32 -14 -35 -8 -32 -50 -132 -56 -136 -5 -3 -9 -12 -9 -21 0 -8 -40
-97 -89 -197 -121 -247 -237 -418 -405 -595 -28 -30 -50 -58 -49 -63 2 -4 -2
-8 -7 -8 -6 0 -27 -17 -48 -37 -35 -35 -92 -86 -153 -138 -43 -36 -143 -108
-209 -151 -131 -84 -407 -213 -429 -200 -11 7 -6 5957 6 5964 6 4 73 6 150 5
76 -1 197 -2 269 -3z m3752 -5 c3 -3 -46 -58 -110 -123 -187 -190 -397 -471
-525 -702 -47 -85 -133 -255 -133 -264 0 -4 -7 -22 -14 -39 -55 -119 -202
-605 -220 -727 -3 -19 -8 -46 -11 -60 -14 -68 -39 -230 -51 -327 -1 -13 -5
-40 -8 -60 -7 -50 -14 -105 -21 -173 -3 -30 -8 -77 -11 -105 -11 -112 -22
-235 -29 -325 -3 -41 -7 -104 -10 -140 -3 -36 -7 -99 -10 -140 -3 -41 -8 -95
-11 -120 -3 -25 -7 -58 -9 -75 -2 -16 -7 -57 -10 -90 -3 -33 -8 -71 -10 -85
-3 -14 -7 -47 -10 -75 -4 -27 -11 -79 -16 -115 -6 -36 -12 -79 -14 -95 -4 -28
-24 -124 -50 -240 -2 -11 -7 -31 -10 -45 -3 -14 -12 -52 -20 -85 -9 -33 -17
-68 -20 -77 -42 -173 -122 -430 -195 -621 -58 -153 -267 -536 -350 -640 -207
-262 -232 -291 -341 -404 -38 -40 -69 -77 -69 -83 0 -5 -3 -9 -7 -8 -5 2 -33
-21 -63 -49 -30 -29 -64 -53 -75 -53 -11 -1 -126 -3 -255 -5 l-234 -3 51 47
c29 27 49 52 45 56 -4 3 -2 5 4 3 20 -6 260 235 396 397 175 210 380 565 488
846 11 30 25 63 30 74 38 79 162 462 206 635 8 34 53 248 58 280 3 19 7 44 10
55 2 11 7 45 11 75 4 30 9 62 10 71 2 9 6 40 10 69 4 29 8 60 10 69 2 9 6 44
10 76 4 33 9 68 11 78 2 10 6 53 10 95 3 42 8 80 10 83 2 3 6 44 10 90 3 46 8
86 9 90 2 3 6 43 10 90 3 46 8 91 10 99 2 8 7 53 10 100 4 47 9 92 10 101 2 9
6 52 10 95 4 43 8 90 10 104 2 14 7 45 10 70 5 40 27 179 41 265 2 17 11 64
19 105 8 41 17 91 21 110 3 19 7 40 8 45 6 27 26 123 30 145 26 154 158 570
236 745 101 226 186 381 298 545 76 112 216 284 264 326 l34 30 253 -3 c140
-1 256 -5 259 -8z m-1608 1 c0 -2 -28 -52 -61 -112 -178 -313 -315 -659 -424
-1069 -14 -55 -33 -122 -42 -149 l-15 -48 -25 28 c-13 16 -34 40 -46 54 -12
14 -47 55 -77 90 -30 36 -57 67 -60 70 -3 3 -28 32 -55 65 -63 75 -95 112
-120 140 -11 13 -38 44 -60 71 -22 26 -69 82 -105 123 -81 95 -267 313 -345
406 -73 86 -106 124 -125 145 -8 9 -37 43 -65 75 -27 33 -55 65 -60 70 -6 6
-17 18 -24 27 -12 16 38 17 848 17 474 0 861 -1 861 -3z m773 -9 c-108 -141
-244 -338 -266 -387 -4 -8 -16 -30 -28 -49 -63 -105 -216 -435 -235 -506 -1
-5 -14 -41 -29 -80 -45 -118 -75 -214 -109 -355 -39 -160 -107 -464 -121 -543
-4 -20 -11 -39 -14 -42 -13 -7 -326 367 -326 389 -1 12 5 41 12 66 8 25 15 54
17 65 41 212 197 703 288 905 69 152 191 376 230 425 5 6 26 35 48 66 l39 56
251 1 c198 1 250 -1 243 -11z m956 -3176 l2 -2969 -1106 0 c-608 0 -1105 3
-1105 7 1 3 39 47 86 96 140 149 257 306 449 605 185 286 444 1016 509 1436 4
22 14 77 22 124 9 46 18 98 20 115 2 16 6 48 9 70 4 22 9 54 11 70 2 17 6 41
9 55 5 26 10 75 20 200 3 41 7 95 10 120 2 25 7 79 10 120 8 94 14 172 20 230
2 25 7 72 10 105 9 114 16 180 20 211 2 17 9 78 15 135 6 57 13 111 15 119 2
8 6 40 10 70 3 30 12 96 21 145 8 50 17 104 20 120 11 71 48 247 70 335 57
228 215 629 306 775 65 104 164 251 228 335 62 84 297 340 311 340 3 0 7
-1336 8 -2969z m-2087 1250 c13 -14 48 -55 78 -91 30 -35 60 -70 66 -76 5 -6
26 -31 45 -54 18 -24 42 -50 52 -59 43 -38 48 -66 32 -196 -10 -84 -25 -222
-30 -280 -3 -33 -7 -80 -10 -105 -3 -25 -7 -70 -10 -100 -2 -30 -7 -75 -10
-100 -2 -25 -7 -76 -10 -115 -3 -38 -10 -104 -15 -145 -5 -41 -12 -97 -15
-125 -3 -27 -8 -61 -11 -75 -3 -14 -7 -38 -9 -55 -9 -95 -82 -447 -122 -595
-14 -52 -26 -99 -28 -105 -4 -22 -26 -101 -32 -115 -3 -8 -7 -19 -8 -25 -17
-71 -127 -368 -174 -467 -23 -48 -41 -91 -41 -94 0 -4 -6 -15 -13 -23 -7 -9
-22 -36 -32 -61 -11 -25 -29 -61 -40 -80 -12 -19 -39 -64 -60 -100 -43 -73
-199 -299 -238 -345 -239 -279 -412 -435 -641 -580 l-78 -50 -344 -2 c-189 -1
-344 2 -344 5 0 4 22 17 48 29 143 67 275 134 288 148 9 8 19 15 22 15 6 0 74
47 171 117 162 118 342 287 436 407 17 21 35 44 40 50 6 6 22 27 35 46 13 19
27 37 31 40 3 3 33 45 64 94 255 392 499 1022 611 1581 24 120 31 161 40 215
2 19 7 46 9 60 3 14 7 43 10 65 3 22 10 65 16 95 5 30 12 73 15 95 3 22 9 65
14 95 5 30 12 83 15 118 4 35 8 72 10 82 2 10 6 47 10 82 3 35 8 79 10 98 2
19 7 60 10 90 4 30 8 66 10 80 2 14 6 52 10 85 6 68 22 201 31 260 3 22 7 49
8 60 8 63 18 133 23 149 5 19 6 19 19 1 7 -10 24 -30 36 -44z"/>
</g>
</svg>
